<svg xmlns="http://www.w3.org/2000/svg" xmlns:xlink="http://www.w3.org/1999/xlink" width="308" zoomAndPan="magnify" viewBox="0 0 230.87999 231" height="308" preserveAspectRatio="xMidYMid meet" version="1.0"><defs><clipPath id="7dc8cddb20"><path d="M 197 105 L 230.128906 105 L 230.128906 139 L 197 139 Z M 197 105 " clip-rule="nonzero"/></clipPath><clipPath id="4184d58cef"><path d="M 197 106 L 230.128906 106 L 230.128906 139 L 197 139 Z M 197 106 " clip-rule="nonzero"/></clipPath></defs><g clip-path="url(#7dc8cddb20)"><path fill="#00b232" d="M 230.128906 122.03125 L 214.019531 105.921875 L 197.914062 122.03125 L 214.019531 138.136719 Z M 230.128906 122.03125 " fill-opacity="1" fill-rule="nonzero"/></g><path fill="#00b232" d="M 138.21875 163.660156 C 137.21875 163.660156 136.324219 163.484375 135.523438 163.128906 C 134.742188 162.761719 134.121094 162.269531 133.660156 161.65625 C 133.199219 161.027344 132.957031 160.332031 132.925781 159.5625 L 135.640625 159.5625 C 135.6875 160.101562 135.9375 160.554688 136.398438 160.921875 C 136.875 161.273438 137.464844 161.449219 138.171875 161.449219 C 138.90625 161.449219 139.476562 161.3125 139.875 161.035156 C 140.289062 160.746094 140.496094 160.375 140.496094 159.929688 C 140.496094 159.457031 140.265625 159.101562 139.804688 158.871094 C 139.359375 158.644531 138.648438 158.390625 137.664062 158.113281 C 136.714844 157.851562 135.9375 157.601562 135.339844 157.355469 C 134.742188 157.109375 134.222656 156.734375 133.777344 156.226562 C 133.347656 155.71875 133.132812 155.054688 133.132812 154.222656 C 133.132812 153.550781 133.332031 152.9375 133.730469 152.382812 C 134.128906 151.816406 134.695312 151.371094 135.433594 151.046875 C 136.183594 150.726562 137.042969 150.566406 138.011719 150.566406 C 139.453125 150.566406 140.609375 150.933594 141.484375 151.667969 C 142.375 152.390625 142.851562 153.378906 142.914062 154.636719 L 140.289062 154.636719 C 140.242188 154.070312 140.011719 153.617188 139.597656 153.28125 C 139.183594 152.941406 138.625 152.773438 137.917969 152.773438 C 137.226562 152.773438 136.699219 152.90625 136.332031 153.164062 C 135.960938 153.425781 135.777344 153.773438 135.777344 154.203125 C 135.777344 154.539062 135.902344 154.824219 136.144531 155.054688 C 136.390625 155.28125 136.691406 155.46875 137.042969 155.605469 C 137.398438 155.726562 137.917969 155.890625 138.609375 156.089844 C 139.527344 156.332031 140.28125 156.585938 140.863281 156.847656 C 141.460938 157.09375 141.976562 157.460938 142.40625 157.953125 C 142.835938 158.441406 143.058594 159.09375 143.074219 159.910156 C 143.074219 160.628906 142.875 161.273438 142.476562 161.839844 C 142.074219 162.410156 141.507812 162.855469 140.773438 163.175781 C 140.050781 163.5 139.199219 163.660156 138.21875 163.660156 Z M 147.242188 149.09375 C 146.765625 149.09375 146.367188 148.929688 146.046875 148.609375 C 145.722656 148.285156 145.5625 147.886719 145.5625 147.414062 C 145.5625 146.9375 145.722656 146.539062 146.046875 146.214844 C 146.367188 145.894531 146.765625 145.734375 147.242188 145.734375 C 147.703125 145.734375 148.09375 145.894531 148.417969 146.214844 C 148.738281 146.539062 148.898438 146.9375 148.898438 147.414062 C 148.898438 147.886719 148.738281 148.285156 148.417969 148.609375 C 148.09375 148.929688 147.703125 149.09375 147.242188 149.09375 Z M 148.53125 150.773438 L 148.53125 163.453125 L 145.90625 163.453125 L 145.90625 150.773438 Z M 167.324219 150.566406 C 168.324219 150.566406 169.210938 150.773438 169.996094 151.1875 C 170.792969 151.601562 171.414062 152.214844 171.859375 153.027344 C 172.320312 153.839844 172.550781 154.824219 172.550781 155.972656 L 172.550781 163.453125 L 169.949219 163.453125 L 169.949219 156.363281 C 169.949219 155.230469 169.664062 154.363281 169.097656 153.765625 C 168.53125 153.148438 167.753906 152.84375 166.773438 152.84375 C 165.792969 152.84375 165.007812 153.148438 164.425781 153.765625 C 163.859375 154.363281 163.574219 155.230469 163.574219 156.363281 L 163.574219 163.453125 L 160.972656 163.453125 L 160.972656 156.363281 C 160.972656 155.230469 160.691406 154.363281 160.121094 153.765625 C 159.554688 153.148438 158.78125 152.84375 157.796875 152.84375 C 156.816406 152.84375 156.035156 153.148438 155.449219 153.765625 C 154.882812 154.363281 154.597656 155.230469 154.597656 156.363281 L 154.597656 163.453125 L 151.976562 163.453125 L 151.976562 150.773438 L 154.597656 150.773438 L 154.597656 152.222656 C 155.027344 151.699219 155.574219 151.292969 156.234375 151.003906 C 156.894531 150.710938 157.597656 150.566406 158.351562 150.566406 C 159.363281 150.566406 160.269531 150.78125 161.066406 151.210938 C 161.863281 151.640625 162.476562 152.261719 162.90625 153.074219 C 163.289062 152.308594 163.890625 151.699219 164.703125 151.253906 C 165.515625 150.796875 166.390625 150.566406 167.324219 150.566406 Z M 187.507812 156.800781 C 187.507812 157.277344 187.480469 157.707031 187.417969 158.089844 L 177.730469 158.089844 C 177.804688 159.101562 178.183594 159.917969 178.855469 160.53125 C 179.53125 161.144531 180.359375 161.449219 181.34375 161.449219 C 182.753906 161.449219 183.75 160.859375 184.332031 159.679688 L 187.164062 159.679688 C 186.78125 160.84375 186.082031 161.804688 185.070312 162.554688 C 184.074219 163.292969 182.832031 163.660156 181.34375 163.660156 C 180.128906 163.660156 179.039062 163.390625 178.074219 162.855469 C 177.125 162.300781 176.371094 161.535156 175.820312 160.554688 C 175.28125 159.554688 175.011719 158.40625 175.011719 157.101562 C 175.011719 155.796875 175.273438 154.652344 175.796875 153.671875 C 176.332031 152.675781 177.078125 151.90625 178.027344 151.371094 C 178.996094 150.832031 180.097656 150.566406 181.34375 150.566406 C 182.539062 150.566406 183.605469 150.824219 184.539062 151.347656 C 185.476562 151.871094 186.207031 152.605469 186.726562 153.558594 C 187.25 154.492188 187.507812 155.574219 187.507812 156.800781 Z M 184.769531 155.972656 C 184.753906 155.007812 184.410156 154.230469 183.734375 153.648438 C 183.058594 153.066406 182.222656 152.773438 181.226562 152.773438 C 180.320312 152.773438 179.546875 153.066406 178.902344 153.648438 C 178.257812 154.214844 177.875 154.992188 177.753906 155.972656 Z M 192.714844 152.613281 C 193.097656 151.96875 193.605469 151.46875 194.234375 151.117188 C 194.878906 150.75 195.636719 150.566406 196.511719 150.566406 L 196.511719 153.28125 L 195.84375 153.28125 C 194.816406 153.28125 194.035156 153.542969 193.496094 154.0625 C 192.976562 154.585938 192.714844 155.488281 192.714844 156.777344 L 192.714844 163.453125 L 190.089844 163.453125 L 190.089844 150.773438 L 192.714844 150.773438 Z M 192.714844 152.613281 " fill-opacity="1" fill-rule="nonzero"/><path fill="#000000" d="M 21.886719 124.953125 C 18.753906 124.953125 15.949219 124.398438 13.460938 123.292969 C 10.976562 122.144531 9 120.601562 7.527344 118.667969 C 6.097656 116.734375 5.316406 114.597656 5.179688 112.25 L 14.914062 112.25 C 15.097656 113.722656 15.808594 114.941406 17.054688 115.90625 C 18.339844 116.875 19.929688 117.359375 21.816406 117.359375 C 23.65625 117.359375 25.085938 116.988281 26.097656 116.253906 C 27.15625 115.515625 27.683594 114.574219 27.683594 113.421875 C 27.683594 112.179688 27.039062 111.257812 25.75 110.660156 C 24.507812 110.015625 22.507812 109.324219 19.746094 108.589844 C 16.890625 107.898438 14.542969 107.1875 12.703125 106.449219 C 10.910156 105.710938 9.34375 104.585938 8.007812 103.066406 C 6.71875 101.546875 6.074219 99.5 6.074219 96.921875 C 6.074219 94.804688 6.675781 92.871094 7.871094 91.121094 C 9.113281 89.375 10.863281 87.992188 13.117188 86.980469 C 15.417969 85.96875 18.113281 85.460938 21.195312 85.460938 C 25.75 85.460938 29.386719 86.613281 32.101562 88.914062 C 34.820312 91.167969 36.316406 94.230469 36.589844 98.09375 L 27.339844 98.09375 C 27.203125 96.578125 26.558594 95.378906 25.40625 94.503906 C 24.300781 93.585938 22.804688 93.125 20.917969 93.125 C 19.171875 93.125 17.8125 93.445312 16.847656 94.089844 C 15.925781 94.734375 15.464844 95.632812 15.464844 96.785156 C 15.464844 98.074219 16.109375 99.0625 17.398438 99.753906 C 18.6875 100.398438 20.6875 101.0625 23.40625 101.753906 C 26.167969 102.445312 28.445312 103.160156 30.238281 103.894531 C 32.035156 104.632812 33.578125 105.78125 34.863281 107.347656 C 36.199219 108.867188 36.890625 110.890625 36.9375 113.421875 C 36.9375 115.632812 36.316406 117.609375 35.070312 119.359375 C 33.875 121.109375 32.125 122.488281 29.824219 123.503906 C 27.570312 124.46875 24.921875 124.953125 21.886719 124.953125 Z M 49.773438 81.527344 C 48.070312 81.527344 46.640625 80.996094 45.492188 79.9375 C 44.386719 78.832031 43.835938 77.476562 43.835938 75.863281 C 43.835938 74.253906 44.386719 72.917969 45.492188 71.859375 C 46.640625 70.757812 48.070312 70.203125 49.773438 70.203125 C 51.476562 70.203125 52.878906 70.757812 53.984375 71.859375 C 55.132812 72.917969 55.710938 74.253906 55.710938 75.863281 C 55.710938 77.476562 55.132812 78.832031 53.984375 79.9375 C 52.878906 80.996094 51.476562 81.527344 49.773438 81.527344 Z M 54.535156 86.082031 L 54.535156 124.332031 L 44.871094 124.332031 L 44.871094 86.082031 Z M 61.601562 105.070312 C 61.601562 101.203125 62.359375 97.773438 63.878906 94.78125 C 65.441406 91.789062 67.535156 89.488281 70.160156 87.878906 C 72.828125 86.265625 75.796875 85.460938 79.066406 85.460938 C 81.921875 85.460938 84.40625 86.035156 86.523438 87.1875 C 88.6875 88.339844 90.410156 89.789062 91.699219 91.535156 L 91.699219 86.082031 L 101.433594 86.082031 L 101.433594 124.332031 L 91.699219 124.332031 L 91.699219 118.738281 C 90.457031 120.535156 88.730469 122.027344 86.523438 123.226562 C 84.359375 124.375 81.851562 124.953125 78.996094 124.953125 C 75.777344 124.953125 72.828125 124.125 70.160156 122.464844 C 67.535156 120.808594 65.441406 118.484375 63.878906 115.492188 C 62.359375 112.457031 61.601562 108.980469 61.601562 105.070312 Z M 91.699219 105.207031 C 91.699219 102.859375 91.242188 100.855469 90.320312 99.199219 C 89.398438 97.496094 88.15625 96.207031 86.59375 95.335938 C 85.027344 94.414062 83.347656 93.953125 81.550781 93.953125 C 79.757812 93.953125 78.101562 94.390625 76.582031 95.265625 C 75.0625 96.140625 73.820312 97.429688 72.851562 99.132812 C 71.933594 100.789062 71.472656 102.765625 71.472656 105.070312 C 71.472656 107.371094 71.933594 109.394531 72.851562 111.144531 C 73.820312 112.847656 75.0625 114.160156 76.582031 115.078125 C 78.144531 116 79.804688 116.460938 81.550781 116.460938 C 83.347656 116.460938 85.027344 116.023438 86.59375 115.148438 C 88.15625 114.226562 89.398438 112.9375 90.320312 111.28125 C 91.242188 109.578125 91.699219 107.554688 91.699219 105.207031 Z M 125.855469 85.460938 C 128.710938 85.460938 131.21875 86.035156 133.382812 87.1875 C 135.546875 88.292969 137.25 89.742188 138.492188 91.535156 L 138.492188 86.082031 L 148.226562 86.082031 L 148.226562 124.605469 C 148.226562 128.152344 147.511719 131.304688 146.085938 134.066406 C 144.660156 136.871094 142.519531 139.082031 139.664062 140.691406 C 136.8125 142.351562 133.359375 143.179688 129.308594 143.179688 C 123.878906 143.179688 119.414062 141.914062 115.914062 139.382812 C 112.464844 136.847656 110.507812 133.398438 110.046875 129.023438 L 119.644531 129.023438 C 120.148438 130.773438 121.230469 132.15625 122.886719 133.167969 C 124.589844 134.226562 126.640625 134.753906 129.03125 134.753906 C 131.839844 134.753906 134.117188 133.902344 135.867188 132.199219 C 137.617188 130.542969 138.492188 128.011719 138.492188 124.605469 L 138.492188 118.667969 C 137.25 120.464844 135.523438 121.960938 133.3125 123.15625 C 131.148438 124.351562 128.664062 124.953125 125.855469 124.953125 C 122.636719 124.953125 119.6875 124.125 117.019531 122.464844 C 114.351562 120.808594 112.234375 118.484375 110.667969 115.492188 C 109.148438 112.457031 108.390625 108.980469 108.390625 105.070312 C 108.390625 101.203125 109.148438 97.773438 110.667969 94.78125 C 112.234375 91.789062 114.328125 89.488281 116.949219 87.878906 C 119.621094 86.265625 122.589844 85.460938 125.855469 85.460938 Z M 138.492188 105.207031 C 138.492188 102.859375 138.03125 100.855469 137.109375 99.199219 C 136.191406 97.496094 134.945312 96.207031 133.382812 95.335938 C 131.816406 94.414062 130.136719 93.953125 128.34375 93.953125 C 126.546875 93.953125 124.890625 94.390625 123.371094 95.265625 C 121.851562 96.140625 120.609375 97.429688 119.644531 99.132812 C 118.722656 100.789062 118.261719 102.765625 118.261719 105.070312 C 118.261719 107.371094 118.722656 109.394531 119.644531 111.144531 C 120.609375 112.847656 121.851562 114.160156 123.371094 115.078125 C 124.9375 116 126.59375 116.460938 128.34375 116.460938 C 130.136719 116.460938 131.816406 116.023438 133.382812 115.148438 C 134.945312 114.226562 136.191406 112.9375 137.109375 111.28125 C 138.03125 109.578125 138.492188 107.554688 138.492188 105.207031 Z M 167.332031 92.019531 C 168.574219 89.996094 170.183594 88.40625 172.164062 87.257812 C 174.1875 86.105469 176.488281 85.53125 179.066406 85.53125 L 179.066406 95.679688 L 176.511719 95.679688 C 173.476562 95.679688 171.175781 96.394531 169.609375 97.820312 C 168.089844 99.246094 167.332031 101.730469 167.332031 105.277344 L 167.332031 124.332031 L 157.664062 124.332031 L 157.664062 86.082031 L 167.332031 86.082031 Z M 190.480469 81.527344 C 188.777344 81.527344 187.351562 80.996094 186.199219 79.9375 C 185.09375 78.832031 184.542969 77.476562 184.542969 75.863281 C 184.542969 74.253906 185.09375 72.917969 186.199219 71.859375 C 187.351562 70.757812 188.777344 70.203125 190.480469 70.203125 C 192.183594 70.203125 193.585938 70.757812 194.691406 71.859375 C 195.839844 72.917969 196.417969 74.253906 196.417969 75.863281 C 196.417969 77.476562 195.839844 78.832031 194.691406 79.9375 C 193.585938 80.996094 192.183594 81.527344 190.480469 81.527344 Z M 195.242188 86.082031 L 195.242188 124.332031 L 185.578125 124.332031 L 185.578125 86.082031 Z M 195.242188 86.082031 " fill-opacity="1" fill-rule="nonzero"/><g clip-path="url(#4184d58cef)"><path fill="#00b232" d="M 230.128906 122.484375 L 214.019531 106.375 L 197.914062 122.484375 L 214.019531 138.59375 Z M 230.128906 122.484375 " fill-opacity="1" fill-rule="nonzero"/></g><path fill="#00b232" d="M 138.21875 164.117188 C 137.21875 164.117188 136.324219 163.941406 135.523438 163.585938 C 134.742188 163.21875 134.121094 162.726562 133.660156 162.113281 C 133.199219 161.484375 132.957031 160.789062 132.925781 160.019531 L 135.640625 160.019531 C 135.6875 160.558594 135.9375 161.011719 136.398438 161.378906 C 136.875 161.730469 137.464844 161.90625 138.171875 161.90625 C 138.90625 161.90625 139.476562 161.769531 139.875 161.492188 C 140.289062 161.203125 140.496094 160.832031 140.496094 160.386719 C 140.496094 159.914062 140.265625 159.558594 139.804688 159.328125 C 139.359375 159.101562 138.648438 158.847656 137.664062 158.570312 C 136.714844 158.308594 135.9375 158.054688 135.339844 157.8125 C 134.742188 157.566406 134.222656 157.191406 133.777344 156.683594 C 133.347656 156.175781 133.132812 155.507812 133.132812 154.679688 C 133.132812 154.007812 133.332031 153.390625 133.730469 152.839844 C 134.128906 152.273438 134.695312 151.828125 135.433594 151.503906 C 136.183594 151.183594 137.042969 151.023438 138.011719 151.023438 C 139.453125 151.023438 140.609375 151.390625 141.484375 152.125 C 142.375 152.847656 142.851562 153.835938 142.914062 155.09375 L 140.289062 155.09375 C 140.242188 154.527344 140.011719 154.074219 139.597656 153.738281 C 139.183594 153.398438 138.625 153.230469 137.917969 153.230469 C 137.226562 153.230469 136.699219 153.363281 136.332031 153.621094 C 135.960938 153.882812 135.777344 154.230469 135.777344 154.660156 C 135.777344 154.996094 135.902344 155.28125 136.144531 155.507812 C 136.390625 155.738281 136.691406 155.925781 137.042969 156.0625 C 137.398438 156.183594 137.917969 156.347656 138.609375 156.546875 C 139.527344 156.789062 140.28125 157.042969 140.863281 157.304688 C 141.460938 157.550781 141.976562 157.917969 142.40625 158.410156 C 142.835938 158.898438 143.058594 159.550781 143.074219 160.367188 C 143.074219 161.085938 142.875 161.730469 142.476562 162.296875 C 142.074219 162.867188 141.507812 163.3125 140.773438 163.632812 C 140.050781 163.957031 139.199219 164.117188 138.21875 164.117188 Z M 147.242188 149.550781 C 146.765625 149.550781 146.367188 149.386719 146.046875 149.066406 C 145.722656 148.742188 145.5625 148.34375 145.5625 147.871094 C 145.5625 147.394531 145.722656 146.996094 146.046875 146.671875 C 146.367188 146.351562 146.765625 146.191406 147.242188 146.191406 C 147.703125 146.191406 148.09375 146.351562 148.417969 146.671875 C 148.738281 146.996094 148.898438 147.394531 148.898438 147.871094 C 148.898438 148.34375 148.738281 148.742188 148.417969 149.066406 C 148.09375 149.386719 147.703125 149.550781 147.242188 149.550781 Z M 148.53125 151.230469 L 148.53125 163.910156 L 145.90625 163.910156 L 145.90625 151.230469 Z M 167.324219 151.023438 C 168.324219 151.023438 169.210938 151.230469 169.996094 151.644531 C 170.792969 152.058594 171.414062 152.671875 171.859375 153.484375 C 172.320312 154.296875 172.550781 155.28125 172.550781 156.429688 L 172.550781 163.910156 L 169.949219 163.910156 L 169.949219 156.820312 C 169.949219 155.6875 169.664062 154.820312 169.097656 154.222656 C 168.53125 153.605469 167.753906 153.300781 166.773438 153.300781 C 165.792969 153.300781 165.007812 153.605469 164.425781 154.222656 C 163.859375 154.820312 163.574219 155.6875 163.574219 156.820312 L 163.574219 163.910156 L 160.972656 163.910156 L 160.972656 156.820312 C 160.972656 155.6875 160.691406 154.820312 160.121094 154.222656 C 159.554688 153.605469 158.78125 153.300781 157.796875 153.300781 C 156.816406 153.300781 156.035156 153.605469 155.449219 154.222656 C 154.882812 154.820312 154.597656 155.6875 154.597656 156.820312 L 154.597656 163.910156 L 151.976562 163.910156 L 151.976562 151.230469 L 154.597656 151.230469 L 154.597656 152.679688 C 155.027344 152.15625 155.574219 151.75 156.234375 151.460938 C 156.894531 151.167969 157.597656 151.023438 158.351562 151.023438 C 159.363281 151.023438 160.269531 151.238281 161.066406 151.667969 C 161.863281 152.097656 162.476562 152.71875 162.90625 153.53125 C 163.289062 152.761719 163.890625 152.15625 164.703125 151.710938 C 165.515625 151.253906 166.390625 151.023438 167.324219 151.023438 Z M 187.507812 157.257812 C 187.507812 157.734375 187.480469 158.164062 187.417969 158.546875 L 177.730469 158.546875 C 177.804688 159.558594 178.183594 160.375 178.855469 160.988281 C 179.53125 161.601562 180.359375 161.90625 181.34375 161.90625 C 182.753906 161.90625 183.75 161.316406 184.332031 160.136719 L 187.164062 160.136719 C 186.78125 161.300781 186.082031 162.261719 185.070312 163.011719 C 184.074219 163.75 182.832031 164.117188 181.34375 164.117188 C 180.128906 164.117188 179.039062 163.847656 178.074219 163.3125 C 177.125 162.757812 176.371094 161.992188 175.820312 161.011719 C 175.28125 160.011719 175.011719 158.863281 175.011719 157.558594 C 175.011719 156.253906 175.273438 155.109375 175.796875 154.128906 C 176.332031 153.132812 177.078125 152.363281 178.027344 151.828125 C 178.996094 151.289062 180.097656 151.023438 181.34375 151.023438 C 182.539062 151.023438 183.605469 151.28125 184.539062 151.804688 C 185.476562 152.328125 186.207031 153.0625 186.726562 154.015625 C 187.25 154.949219 187.507812 156.03125 187.507812 157.257812 Z M 184.769531 156.429688 C 184.753906 155.464844 184.410156 154.6875 183.734375 154.105469 C 183.058594 153.523438 182.222656 153.230469 181.226562 153.230469 C 180.320312 153.230469 179.546875 153.523438 178.902344 154.105469 C 178.257812 154.671875 177.875 155.449219 177.753906 156.429688 Z M 192.714844 153.070312 C 193.097656 152.425781 193.605469 151.925781 194.234375 151.574219 C 194.878906 151.207031 195.636719 151.023438 196.511719 151.023438 L 196.511719 153.738281 L 195.84375 153.738281 C 194.816406 153.738281 194.035156 154 193.496094 154.519531 C 192.976562 155.042969 192.714844 155.945312 192.714844 157.234375 L 192.714844 163.910156 L 190.089844 163.910156 L 190.089844 151.230469 L 192.714844 151.230469 Z M 192.714844 153.070312 " fill-opacity="1" fill-rule="nonzero"/><path fill="#000000" d="M 21.886719 125.410156 C 18.753906 125.410156 15.949219 124.855469 13.460938 123.75 C 10.976562 122.601562 9 121.058594 7.527344 119.125 C 6.097656 117.191406 5.316406 115.054688 5.179688 112.707031 L 14.914062 112.707031 C 15.097656 114.179688 15.808594 115.398438 17.054688 116.363281 C 18.339844 117.332031 19.929688 117.8125 21.816406 117.8125 C 23.65625 117.8125 25.085938 117.445312 26.097656 116.710938 C 27.15625 115.972656 27.683594 115.03125 27.683594 113.878906 C 27.683594 112.636719 27.039062 111.714844 25.75 111.117188 C 24.507812 110.472656 22.507812 109.78125 19.746094 109.046875 C 16.890625 108.355469 14.542969 107.644531 12.703125 106.90625 C 10.910156 106.167969 9.34375 105.042969 8.007812 103.523438 C 6.71875 102.003906 6.074219 99.957031 6.074219 97.378906 C 6.074219 95.261719 6.675781 93.328125 7.871094 91.578125 C 9.113281 89.832031 10.863281 88.449219 13.117188 87.4375 C 15.417969 86.425781 18.113281 85.917969 21.195312 85.917969 C 25.75 85.917969 29.386719 87.070312 32.101562 89.371094 C 34.820312 91.625 36.316406 94.6875 36.589844 98.550781 L 27.339844 98.550781 C 27.203125 97.035156 26.558594 95.835938 25.40625 94.960938 C 24.300781 94.042969 22.804688 93.582031 20.917969 93.582031 C 19.171875 93.582031 17.8125 93.902344 16.847656 94.546875 C 15.925781 95.191406 15.464844 96.089844 15.464844 97.242188 C 15.464844 98.53125 16.109375 99.519531 17.398438 100.210938 C 18.6875 100.855469 20.6875 101.519531 23.40625 102.210938 C 26.167969 102.902344 28.445312 103.617188 30.238281 104.351562 C 32.035156 105.089844 33.578125 106.238281 34.863281 107.804688 C 36.199219 109.324219 36.890625 111.347656 36.9375 113.878906 C 36.9375 116.089844 36.316406 118.066406 35.070312 119.816406 C 33.875 121.566406 32.125 122.945312 29.824219 123.957031 C 27.570312 124.925781 24.921875 125.410156 21.886719 125.410156 Z M 49.773438 81.984375 C 48.070312 81.984375 46.640625 81.453125 45.492188 80.394531 C 44.386719 79.289062 43.835938 77.933594 43.835938 76.320312 C 43.835938 74.710938 44.386719 73.375 45.492188 72.316406 C 46.640625 71.214844 48.070312 70.660156 49.773438 70.660156 C 51.476562 70.660156 52.878906 71.214844 53.984375 72.316406 C 55.132812 73.375 55.710938 74.710938 55.710938 76.320312 C 55.710938 77.933594 55.132812 79.289062 53.984375 80.394531 C 52.878906 81.453125 51.476562 81.984375 49.773438 81.984375 Z M 54.535156 86.539062 L 54.535156 124.789062 L 44.871094 124.789062 L 44.871094 86.539062 Z M 61.601562 105.527344 C 61.601562 101.660156 62.359375 98.230469 63.878906 95.238281 C 65.441406 92.246094 67.535156 89.945312 70.160156 88.335938 C 72.828125 86.722656 75.796875 85.917969 79.066406 85.917969 C 81.921875 85.917969 84.40625 86.492188 86.523438 87.644531 C 88.6875 88.796875 90.410156 90.246094 91.699219 91.992188 L 91.699219 86.539062 L 101.433594 86.539062 L 101.433594 124.789062 L 91.699219 124.789062 L 91.699219 119.195312 C 90.457031 120.988281 88.730469 122.484375 86.523438 123.683594 C 84.359375 124.832031 81.851562 125.410156 78.996094 125.410156 C 75.777344 125.410156 72.828125 124.582031 70.160156 122.921875 C 67.535156 121.265625 65.441406 118.941406 63.878906 115.949219 C 62.359375 112.914062 61.601562 109.4375 61.601562 105.527344 Z M 91.699219 105.664062 C 91.699219 103.316406 91.242188 101.3125 90.320312 99.65625 C 89.398438 97.953125 88.15625 96.664062 86.59375 95.789062 C 85.027344 94.871094 83.347656 94.410156 81.550781 94.410156 C 79.757812 94.410156 78.101562 94.847656 76.582031 95.722656 C 75.0625 96.597656 73.820312 97.886719 72.851562 99.589844 C 71.933594 101.246094 71.472656 103.222656 71.472656 105.527344 C 71.472656 107.828125 71.933594 109.851562 72.851562 111.601562 C 73.820312 113.304688 75.0625 114.617188 76.582031 115.535156 C 78.144531 116.457031 79.804688 116.917969 81.550781 116.917969 C 83.347656 116.917969 85.027344 116.480469 86.59375 115.605469 C 88.15625 114.683594 89.398438 113.394531 90.320312 111.738281 C 91.242188 110.035156 91.699219 108.011719 91.699219 105.664062 Z M 125.855469 85.917969 C 128.710938 85.917969 131.21875 86.492188 133.382812 87.644531 C 135.546875 88.75 137.25 90.199219 138.492188 91.992188 L 138.492188 86.539062 L 148.226562 86.539062 L 148.226562 125.0625 C 148.226562 128.609375 147.511719 131.761719 146.085938 134.523438 C 144.660156 137.328125 142.519531 139.539062 139.664062 141.148438 C 136.8125 142.804688 133.359375 143.636719 129.308594 143.636719 C 123.878906 143.636719 119.414062 142.371094 115.914062 139.835938 C 112.464844 137.304688 110.507812 133.855469 110.046875 129.480469 L 119.644531 129.480469 C 120.148438 131.230469 121.230469 132.613281 122.886719 133.625 C 124.589844 134.683594 126.640625 135.210938 129.03125 135.210938 C 131.839844 135.210938 134.117188 134.359375 135.867188 132.65625 C 137.617188 131 138.492188 128.46875 138.492188 125.0625 L 138.492188 119.125 C 137.25 120.921875 135.523438 122.417969 133.3125 123.613281 C 131.148438 124.808594 128.664062 125.410156 125.855469 125.410156 C 122.636719 125.410156 119.6875 124.582031 117.019531 122.921875 C 114.351562 121.265625 112.234375 118.941406 110.667969 115.949219 C 109.148438 112.914062 108.390625 109.4375 108.390625 105.527344 C 108.390625 101.660156 109.148438 98.230469 110.667969 95.238281 C 112.234375 92.246094 114.328125 89.945312 116.949219 88.335938 C 119.621094 86.722656 122.589844 85.917969 125.855469 85.917969 Z M 138.492188 105.664062 C 138.492188 103.316406 138.03125 101.3125 137.109375 99.65625 C 136.191406 97.953125 134.945312 96.664062 133.382812 95.789062 C 131.816406 94.871094 130.136719 94.410156 128.34375 94.410156 C 126.546875 94.410156 124.890625 94.847656 123.371094 95.722656 C 121.851562 96.597656 120.609375 97.886719 119.644531 99.589844 C 118.722656 101.246094 118.261719 103.222656 118.261719 105.527344 C 118.261719 107.828125 118.722656 109.851562 119.644531 111.601562 C 120.609375 113.304688 121.851562 114.617188 123.371094 115.535156 C 124.9375 116.457031 126.59375 116.917969 128.34375 116.917969 C 130.136719 116.917969 131.816406 116.480469 133.382812 115.605469 C 134.945312 114.683594 136.191406 113.394531 137.109375 111.738281 C 138.03125 110.035156 138.492188 108.011719 138.492188 105.664062 Z M 167.332031 92.476562 C 168.574219 90.453125 170.183594 88.863281 172.164062 87.714844 C 174.1875 86.5625 176.488281 85.988281 179.066406 85.988281 L 179.066406 96.136719 L 176.511719 96.136719 C 173.476562 96.136719 171.175781 96.847656 169.609375 98.277344 C 168.089844 99.703125 167.332031 102.1875 167.332031 105.734375 L 167.332031 124.789062 L 157.664062 124.789062 L 157.664062 86.539062 L 167.332031 86.539062 Z M 190.480469 81.984375 C 188.777344 81.984375 187.351562 81.453125 186.199219 80.394531 C 185.09375 79.289062 184.542969 77.933594 184.542969 76.320312 C 184.542969 74.710938 185.09375 73.375 186.199219 72.316406 C 187.351562 71.214844 188.777344 70.660156 190.480469 70.660156 C 192.183594 70.660156 193.585938 71.214844 194.691406 72.316406 C 195.839844 73.375 196.417969 74.710938 196.417969 76.320312 C 196.417969 77.933594 195.839844 79.289062 194.691406 80.394531 C 193.585938 81.453125 192.183594 81.984375 190.480469 81.984375 Z M 195.242188 86.539062 L 195.242188 124.789062 L 185.578125 124.789062 L 185.578125 86.539062 Z M 195.242188 86.539062 " fill-opacity="1" fill-rule="nonzero"/></svg>