<svg xmlns="http://www.w3.org/2000/svg" viewBox="0 0 188 42" role="img" aria-labelledby="title">
  <title id="title">ERP Simer</title>
  <defs>
    <linearGradient id="simerGradient" x1="0" y1="0" x2="1" y2="1">
      <stop offset="0" stop-color="#ffffff"/>
      <stop offset="1" stop-color="#c7d2fe"/>
    </linearGradient>
  </defs>
  <rect x="1" y="1" width="40" height="40" rx="12" fill="none" stroke="rgba(255,255,255,.55)" stroke-width="2"/>
  <path d="M11 13.5h20.5l-5.8 6H15.8c-1.6 0-2.5.7-2.5 1.8s.9 1.8 2.5 1.8h10c4.8 0 7.7 2.8 7.7 6.4 0 3.8-3 6.5-7.7 6.5H9.5l5.7-6h10.9c1.5 0 2.4-.7 2.4-1.8s-.9-1.8-2.4-1.8h-10c-4.8 0-7.7-2.7-7.7-6.4 0-2.7 1.5-5 4.1-6.1z" fill="url(#simerGradient)" transform="translate(0 -4) scale(.98)"/>
  <text x="52" y="15" fill="rgba(255,255,255,.7)" font-family="Inter,Arial,sans-serif" font-size="8" font-weight="700" letter-spacing="2.3">ERP</text>
  <text x="51" y="33" fill="#fff" font-family="Inter,Arial,sans-serif" font-size="21" font-weight="800" letter-spacing="1">SIMER</text>
</svg>
